# xmcd
#
# Track frame offsets: 
#        150
#        18332
#        46677
#        66071
#        89038
#        115049
#        139556
#        161283
#        185657
#        218412
#
# Disc length: 3644 seconds
#
# Revision: 0
# Processed by: cddbd v1.5.2PL0 Copyright (c) Steve Scherf et al.
# Submitted via: ExactAudioCopy v1.0b3
#
DISCID=7a0e3a0a
DTITLE=Blindside Blues Band - Smokehouse Sessions Volume Two
DYEAR=2010
DGENRE=Blues
TTITLE0=Evil
TTITLE1=Mojo Highway
TTITLE2=King of the Sky
TTITLE3=I Ain't Superstitious
TTITLE4=Working So Hard
TTITLE5=Smokehouse Shuffle
TTITLE6=Whiskey Man
TTITLE7=Bad Woman Blues
TTITLE8=Hear My Train A Comin'
TTITLE9=To the Station (unplugged)
EXTD=
EXTT0=
EXTT1=
EXTT2=
EXTT3=
EXTT4=
EXTT5=
EXTT6=
EXTT7=
EXTT8=
EXTT9=
PLAYORDER=
